<svg xmlns="http://www.w3.org/2000/svg" viewBox="0 0 221.5 100.21"><defs><style>.cls-1{fill:#2d2e87;}.cls-2{fill:#ea5b0c;}.cls-3{fill:#95c11f;}.cls-4{fill:#fc0;}.cls-5{fill:#f0869d;}</style></defs><title>logo</title><g id="Calque_2" data-name="Calque 2"><g id="Calque_1-2" data-name="Calque 1"><path class="cls-1" d="M221.5,60.47a2,2,0,0,0-2-2.06,2,2,0,0,0-2,2.06v.92a1.94,1.94,0,0,0,2.1,2,1.87,1.87,0,0,0,2-2Zm0-24.77a1.94,1.94,0,0,0-2-2.06,2,2,0,0,0-2,2.06V52.51a1.94,1.94,0,0,0,2,2.05,1.91,1.91,0,0,0,2-2.05ZM206.27,66.82a2,2,0,0,0-2-2.06,1.68,1.68,0,0,1-1.71-1.8V38.37a2.06,2.06,0,0,0-4.12,0V63c0,3.77,2.11,5.82,5.83,5.82a1.91,1.91,0,0,0,2-2m-14-13.53a2,2,0,0,0-2.1-2,1.93,1.93,0,0,0-2,2V70.75a1.89,1.89,0,0,0,2,2,2,2,0,0,0,2.1-2Zm0-8.88a2,2,0,0,0-2.1-2,1.89,1.89,0,0,0-2,2v.92a1.88,1.88,0,0,0,2,2,2,2,0,0,0,2.1-2Zm-13.44,6.91h-6.26V49.4a2.87,2.87,0,0,1,3-2.85H176a2.94,2.94,0,0,1,2.89,3Zm4.07-1.79a6.9,6.9,0,0,0-7-7.05h-.35a7,7,0,0,0-7.05,6.92v7.22a6.82,6.82,0,0,0,7.05,6.78h.35c3.15,0,5-1.44,6.34-4.11a2.4,2.4,0,0,0,.26-.92,2,2,0,0,0-2.14-1.84c-2.23,0-1.53,2.93-4.46,2.93h-.35a2.86,2.86,0,0,1-2.94-2.84V55.09h8.32a2,2,0,0,0,2-2.06ZM164.56,66.82a2,2,0,0,0-2-2.06,1.68,1.68,0,0,1-1.71-1.8V38.37a2.06,2.06,0,0,0-4.11,0V63c0,3.77,2.1,5.82,5.82,5.82a1.91,1.91,0,0,0,2-2M148.28,51.1a2.84,2.84,0,0,1-3,2.85H145A2.84,2.84,0,0,1,142,51.1V49.4A2.84,2.84,0,0,1,145,46.55h.34a2.84,2.84,0,0,1,3,2.85Zm4.07-1.7a6.93,6.93,0,0,0-7-6.92H145a6.93,6.93,0,0,0-7.05,6.92v1.7A6.87,6.87,0,0,0,145,58h.34a6.87,6.87,0,0,0,7-6.88Zm-17.94,7.74c0-7.92-10.64-5.34-10.64-8.4V48.3c0-1,1.36-1.7,3.24-1.7h.22c2.63,0,3,1.48,4.64,1.48a1.93,1.93,0,0,0,1.92-1.88c0-1.49-2.8-3.67-6.56-3.67H127c-2.67,0-7.26,1.44-7.26,5.64v.7c0,3.64,3.67,4.9,6.61,5.43,1.75.35,4,.57,4,2.84,0,1.36-1,2.37-3.33,2.37h-.7c-2.84,0-2.89-3.24-4.94-3.24a2,2,0,0,0-2.06,1.93,3.07,3.07,0,0,0,.17.91,7.6,7.6,0,0,0,6.83,4.34h.7c3.15,0,7.4-1.49,7.4-6.31"/><path class="cls-2" d="M187.77,34.59a3.24,3.24,0,0,1-3.44-3.36V29.65a3.44,3.44,0,0,1,6.88,0v1.58a3.24,3.24,0,0,1-3.44,3.36"/><path class="cls-2" d="M134.88,34.59a3.24,3.24,0,0,1-3.43-3.36V29.65a3.44,3.44,0,1,1,6.87,0v1.58a3.24,3.24,0,0,1-3.44,3.36"/><path class="cls-1" d="M196.43,19.21A3.25,3.25,0,0,1,193,15.84V14.26a3.44,3.44,0,0,1,6.88,0v1.58a3.25,3.25,0,0,1-3.44,3.37"/><path class="cls-1" d="M167.71,23.65a3.24,3.24,0,0,1-3.44-3.37V18.71a3.44,3.44,0,0,1,6.88,0v1.57a3.24,3.24,0,0,1-3.44,3.37"/><path class="cls-1" d="M127.48,21.6A3.24,3.24,0,0,1,124,18.23V16.66a3.44,3.44,0,1,1,6.88,0v1.57a3.24,3.24,0,0,1-3.44,3.37"/><path class="cls-2" d="M178.37,9a3.24,3.24,0,0,1-4.54-1.6L173.17,6a3.29,3.29,0,0,1,1.66-4.56,3.3,3.3,0,0,1,4.57,1.66l.66,1.43A3.23,3.23,0,0,1,178.37,9"/><path class="cls-1" d="M214.69,72.16v1.57a3.44,3.44,0,1,1-6.88,0V72.16a3.44,3.44,0,0,1,6.88,0"/><path class="cls-1" d="M140.75,66.69v1.57a3.44,3.44,0,0,1-6.88,0V66.69a3.44,3.44,0,0,1,6.88,0"/><path class="cls-1" d="M190.8,80.53v1.58a3.44,3.44,0,1,1-6.87,0V80.53a3.44,3.44,0,0,1,6.87,0"/><path class="cls-3" d="M161.33,24.85a3.3,3.3,0,0,0-3.44,3.43v1.58a3.44,3.44,0,0,0,6.87,0V28.28a3.3,3.3,0,0,0-3.43-3.43"/><path class="cls-3" d="M141.35,15.28A3.25,3.25,0,0,0,138.08,18l-.35,1.54a3.25,3.25,0,0,0,2.62,4,4.4,4.4,0,0,0,.88.1A3.16,3.16,0,0,0,144.44,21l.35-1.54a3.31,3.31,0,0,0-2.6-4.11,4,4,0,0,0-.84-.09"/><path class="cls-3" d="M173.26,79.83a3.14,3.14,0,0,0-3.16,2.52l-.4,1.52a3.3,3.3,0,0,0,2.45,4.19,3.54,3.54,0,0,0,1,.13,3.25,3.25,0,0,0,3.23-2.58l.4-1.53A3.24,3.24,0,0,0,174.27,80a3.83,3.83,0,0,0-1-.13"/><path class="cls-1" d="M160.53,81.17l1.09,1.13a3.44,3.44,0,0,1-5,4.78l-1.09-1.14a3.44,3.44,0,0,1,4.95-4.77"/><path class="cls-3" d="M136.78,86.43l.58,1.46A3.44,3.44,0,0,1,131,90.4l-.57-1.47a3.44,3.44,0,0,1,6.4-2.5"/><path class="cls-4" d="M174.71,28.31a3.62,3.62,0,0,0-1.08.16,3.3,3.3,0,0,0-2.31,4.28l.45,1.51a3.14,3.14,0,0,0,3.12,2.4A4,4,0,0,0,176,36.5a3.25,3.25,0,0,0,2.33-4.21l-.45-1.51a3.24,3.24,0,0,0-3.2-2.47"/><path class="cls-4" d="M148.56,28.84a3.3,3.3,0,0,0-3.44,3.43v1.58a3.44,3.44,0,0,0,6.88,0V32.27a3.3,3.3,0,0,0-3.44-3.43"/><path class="cls-4" d="M142.64,2.73a3.31,3.31,0,0,0-3.44,3.44V7.75a3.44,3.44,0,0,0,6.87,0V6.17a3.3,3.3,0,0,0-3.43-3.44"/><path class="cls-4" d="M172.8,67.25a3.24,3.24,0,0,0-3.44,3.37v1.57a3.44,3.44,0,0,0,6.88,0V70.62a3.24,3.24,0,0,0-3.44-3.37"/><path class="cls-4" d="M142.64,75.89a3.25,3.25,0,0,0-3.44,3.37v1.57a3.44,3.44,0,1,0,6.87,0V79.26a3.25,3.25,0,0,0-3.43-3.37"/><path class="cls-4" d="M187.45,90.9a3.21,3.21,0,0,0-3.35,3L184,95.49A3.3,3.3,0,0,0,187,99.26l.39,0a3.28,3.28,0,0,0,3.38-3.1l.16-1.57a3.26,3.26,0,0,0-3.09-3.69l-.41,0"/><path class="cls-1" d="M172.34,94.46l.35,1.54a3.44,3.44,0,1,1-6.7,1.53L165.64,96a3.44,3.44,0,0,1,6.7-1.53"/><path class="cls-4" d="M210.28,36.47a3.31,3.31,0,0,0-3.44,3.44v1.57a3.44,3.44,0,0,0,6.88,0V39.91a3.31,3.31,0,0,0-3.44-3.44"/><path class="cls-5" d="M203.36,22.59a3.22,3.22,0,0,0-3.11,2.27l-.55,1.48a3.24,3.24,0,0,0,2.06,4.34,4,4,0,0,0,1.36.25,3.14,3.14,0,0,0,3-2.21l.54-1.48a3.32,3.32,0,0,0-2-4.42,3.83,3.83,0,0,0-1.3-.23"/><path class="cls-5" d="M118.81,30.54a3.31,3.31,0,0,0-2.43,4.21l.41,1.52a3.44,3.44,0,0,0,6.64-1.77L123,33a3.31,3.31,0,0,0-4.21-2.43"/><path class="cls-5" d="M184,13.9a3.31,3.31,0,0,0-3.44,3.44v1.58a3.44,3.44,0,0,0,6.88,0V17.34A3.31,3.31,0,0,0,184,13.9"/><path class="cls-2" d="M155.17,12.2a3.3,3.3,0,0,0-3.44,3.43v1.58a3.44,3.44,0,0,0,6.88,0V15.63a3.3,3.3,0,0,0-3.44-3.43"/><path class="cls-5" d="M160,0a3.31,3.31,0,0,0-3.44,3.44V5a3.44,3.44,0,0,0,6.88,0V3.44A3.31,3.31,0,0,0,160,0"/><path class="cls-2" d="M151.91,67.25a3.15,3.15,0,0,0-3.22,2.67l-.33,1.54A3.31,3.31,0,0,0,151,75.54a4.23,4.23,0,0,0,.79.08,3.25,3.25,0,0,0,3.29-2.74l.32-1.54a3.23,3.23,0,0,0-2.67-4,3.84,3.84,0,0,0-.83-.09"/><path class="cls-5" d="M121.21,68.79a3.25,3.25,0,0,0-3.44,3.37v1.57a3.44,3.44,0,1,0,6.88,0V72.16a3.25,3.25,0,0,0-3.44-3.37"/><path class="cls-5" d="M199.87,77.86a3.24,3.24,0,0,0-3.44,3.36V82.8a3.44,3.44,0,1,0,6.88,0V81.22a3.24,3.24,0,0,0-3.44-3.36"/><path class="cls-5" d="M150.5,91.83a3.25,3.25,0,0,0-3.44,3.37v1.57a3.44,3.44,0,0,0,6.88,0V95.2a3.25,3.25,0,0,0-3.44-3.37"/><path class="cls-3" d="M210.65,52.65a3.3,3.3,0,0,0-3.73,3.12l-.14,1.57a3.44,3.44,0,0,0,6.85.6l.14-1.57a3.29,3.29,0,0,0-3.12-3.72"/><path class="cls-1" d="M113.58,22.33c0-1.48-1-2-2.4-2a5.45,5.45,0,0,0-5.78,5.82v3.2h-.35a1.9,1.9,0,0,0-2,2,1.92,1.92,0,0,0,2,2h.35V53.63a2.06,2.06,0,0,0,4.11,0V33.36h2a1.93,1.93,0,0,0,2-2,1.9,1.9,0,0,0-2-2h-2V26.19a1.69,1.69,0,0,1,1.67-1.84c1.35,0,2.4-.53,2.4-2m-14.48,9a2,2,0,0,0-2-2.1,2,2,0,0,0-2,2.1v7a3,3,0,0,1-3,3h-.39a2.94,2.94,0,0,1-2.89-3v-7a2.06,2.06,0,1,0-4.12,0v7a6.72,6.72,0,0,0,7,6.92h.39a3.37,3.37,0,0,0,3-1.05,2,2,0,0,0,2,1.05,1.9,1.9,0,0,0,2-2Zm-23.33,6.7H69.51V36.12a2.88,2.88,0,0,1,3-2.85h.39a2.94,2.94,0,0,1,2.89,3Zm4.07-1.8a6.9,6.9,0,0,0-7-7h-.35a7,7,0,0,0-7,6.91v7.22a6.82,6.82,0,0,0,7,6.79h.35c3.16,0,5-1.45,6.35-4.12a2.36,2.36,0,0,0,.26-.92,2,2,0,0,0-2.14-1.84c-2.23,0-1.53,2.94-4.47,2.94h-.35a2.87,2.87,0,0,1-2.93-2.85V41.81h8.32a2,2,0,0,0,2-2.06Zm-19.26,4.9a6.81,6.81,0,0,0-7-7h-.39a3.5,3.5,0,0,0-2.93,1.14,2.22,2.22,0,0,0-2.06-1.14,2,2,0,0,0-2.06,2.1V48.16a2.06,2.06,0,0,0,4.12,0v-7a2.94,2.94,0,0,1,2.93-3h.39a2.88,2.88,0,0,1,2.93,3v7a2,2,0,0,0,2.06,2,1.89,1.89,0,0,0,2-2Z"/><path class="cls-1" d="M34.14,57.36a6.82,6.82,0,0,0-7-7h-.39a3.52,3.52,0,0,0-2.93,1.14,2.22,2.22,0,0,0-2.06-1.14,2,2,0,0,0-2.06,2.1v12a1.91,1.91,0,0,0,2.06,2,1.91,1.91,0,0,0,2.06-2v-7a2.94,2.94,0,0,1,2.93-3h.39a2.89,2.89,0,0,1,2.94,3v7a2,2,0,0,0,2,2,1.9,1.9,0,0,0,2-2Zm-19.7-9.81a2,2,0,0,0-2-2.1,2,2,0,0,0-2.06,2.1v7a2.94,2.94,0,0,1-3,3H7a2.93,2.93,0,0,1-2.89-3v-7a2,2,0,0,0-2.05-2.1A2,2,0,0,0,0,47.55v7a6.71,6.71,0,0,0,7,6.91h.4a3.35,3.35,0,0,0,3-1,2,2,0,0,0,2.06,1,1.88,1.88,0,0,0,2-2Z"/><path class="cls-1" d="M114.32,76.53c0-7.93-10.63-5.34-10.63-8.41v-.44c0-1,1.35-1.7,3.24-1.7h.21c2.63,0,3,1.48,4.64,1.48a1.93,1.93,0,0,0,1.93-1.88c0-1.48-2.8-3.67-6.57-3.67h-.21c-2.67,0-7.27,1.44-7.27,5.64v.7c0,3.63,3.68,4.9,6.61,5.43,1.75.35,4,.57,4,2.85,0,1.35-1,2.36-3.32,2.36h-.7c-2.85,0-2.89-3.24-5-3.24a2,2,0,0,0-2.06,1.92,2.78,2.78,0,0,0,.18.92,7.58,7.58,0,0,0,6.83,4.34h.7c3.15,0,7.39-1.49,7.39-6.3M94,64a2,2,0,0,0-2.1-2,1.92,1.92,0,0,0-2,2V81.41a1.89,1.89,0,0,0,2,2,2,2,0,0,0,2.1-2Zm0-8.89a2,2,0,0,0-2.1-2,1.9,1.9,0,0,0-2,2V56a1.89,1.89,0,0,0,2,2A2,2,0,0,0,94,56ZM81.41,70.49a2.84,2.84,0,0,1-3,2.84h-.35a2.84,2.84,0,0,1-2.94-2.84V68.78a2.84,2.84,0,0,1,2.94-2.85h.35a2.84,2.84,0,0,1,3,2.85Zm4.07-1.71a6.93,6.93,0,0,0-7-6.92h-.35a6.93,6.93,0,0,0-7,6.92v1.71a6.87,6.87,0,0,0,7,6.87h.35a6.87,6.87,0,0,0,7-6.87Zm-17.07.87a2.62,2.62,0,0,0-.13-.52c-.48-1.49-1.7-3.28-5.16-3.28a2.62,2.62,0,0,0-2.06.78C60.71,66,60,65.85,59,65.85a1.91,1.91,0,0,0-2,2V81.43a1.9,1.9,0,0,0,2,2,2,2,0,0,0,2.14-2V71.75c0-1.48,1-1.92,2.1-1.92,2.28,0,1.18,1.53,3.07,1.53,1,0,2.18-.57,2.18-1.71M53.88,86.24a2,2,0,0,0-2.05-2.06,1.91,1.91,0,0,1-1.71-1.79V66.11h1.49A2,2,0,0,0,53.67,64a2,2,0,0,0-2.06-2H50.12V58a2,2,0,0,0-2.06-2.06,2,2,0,0,0-2,2.06v4h-.7a2,2,0,0,0-2,2,2,2,0,0,0,2,2.1h.7V82.39a5.75,5.75,0,0,0,5.74,5.82,1.9,1.9,0,0,0,2.05-2"/></g></g></svg>